<svg xmlns="http://www.w3.org/2000/svg" width="980" height="320" viewBox="0 0 980 320">
<rect x="0" y="0" width="100%" height="100%" fill="white"/>
<text x="490.0" y="16" text-anchor="middle" font-size="16" font-family="Arial">A0 Flexible: Position vs Time</text>
<line x1="70" y1="20.0" x2="960" y2="20.0" stroke="#e5e7eb" stroke-width="1"/>
<text x="62" y="24.0" text-anchor="end" font-size="11" font-family="Arial" fill="#555">202.2</text>
<line x1="70" y1="71.0" x2="960" y2="71.0" stroke="#e5e7eb" stroke-width="1"/>
<text x="62" y="75.0" text-anchor="end" font-size="11" font-family="Arial" fill="#555">162.8</text>
<line x1="70" y1="122.0" x2="960" y2="122.0" stroke="#e5e7eb" stroke-width="1"/>
<text x="62" y="126.0" text-anchor="end" font-size="11" font-family="Arial" fill="#555">123.3</text>
<line x1="70" y1="173.0" x2="960" y2="173.0" stroke="#e5e7eb" stroke-width="1"/>
<text x="62" y="177.0" text-anchor="end" font-size="11" font-family="Arial" fill="#555">83.9</text>
<line x1="70" y1="224.0" x2="960" y2="224.0" stroke="#e5e7eb" stroke-width="1"/>
<text x="62" y="228.0" text-anchor="end" font-size="11" font-family="Arial" fill="#555">44.4</text>
<line x1="70" y1="275.0" x2="960" y2="275.0" stroke="#e5e7eb" stroke-width="1"/>
<text x="62" y="279.0" text-anchor="end" font-size="11" font-family="Arial" fill="#555">5.0</text>
<line x1="70.0" y1="20" x2="70.0" y2="275" stroke="#f3f4f6" stroke-width="1"/>
<text x="70.0" y="293" text-anchor="middle" font-size="11" font-family="Arial" fill="#555">0.0</text>
<line x1="248.0" y1="20" x2="248.0" y2="275" stroke="#f3f4f6" stroke-width="1"/>
<text x="248.0" y="293" text-anchor="middle" font-size="11" font-family="Arial" fill="#555">4.0</text>
<line x1="426.0" y1="20" x2="426.0" y2="275" stroke="#f3f4f6" stroke-width="1"/>
<text x="426.0" y="293" text-anchor="middle" font-size="11" font-family="Arial" fill="#555">8.0</text>
<line x1="604.0" y1="20" x2="604.0" y2="275" stroke="#f3f4f6" stroke-width="1"/>
<text x="604.0" y="293" text-anchor="middle" font-size="11" font-family="Arial" fill="#555">11.9</text>
<line x1="782.0" y1="20" x2="782.0" y2="275" stroke="#f3f4f6" stroke-width="1"/>
<text x="782.0" y="293" text-anchor="middle" font-size="11" font-family="Arial" fill="#555">15.9</text>
<line x1="960.0" y1="20" x2="960.0" y2="275" stroke="#f3f4f6" stroke-width="1"/>
<text x="960.0" y="293" text-anchor="middle" font-size="11" font-family="Arial" fill="#555">19.9</text>
<line x1="70" y1="275" x2="960" y2="275" stroke="#111" stroke-width="1.5"/>
<line x1="70" y1="20" x2="70" y2="275" stroke="#111" stroke-width="1.5"/>
<text x="490.0" y="312" text-anchor="middle" font-size="12" font-family="Arial">t (s)</text>
<text x="18" y="160.0" text-anchor="middle" font-size="12" font-family="Arial" transform="rotate(-90 18 160.0)">p (m)</text>
<line x1="820" y1="28" x2="840" y2="28" stroke="#1f77b4" stroke-width="3"/>
<text x="848" y="32" font-size="12" font-family="Arial">p</text>
<line x1="820" y1="48" x2="840" y2="48" stroke="#d62728" stroke-width="3"/>
<text x="848" y="52" font-size="12" font-family="Arial">m</text>
<line x1="820" y1="68" x2="840" y2="68" stroke="#2ca02c" stroke-width="3"/>
<text x="848" y="72" font-size="12" font-family="Arial">s</text>
<polyline fill="none" stroke="#1f77b4" stroke-width="2.2" points="70.00,267.24 74.47,265.08 78.94,262.93 83.42,260.77 87.89,258.63 92.36,256.49 96.83,254.36 101.31,252.24 105.78,250.14 110.25,248.05 114.72,245.97 119.20,243.92 123.67,241.88 128.14,239.86 132.61,237.86 137.09,235.88 141.56,233.92 146.03,231.98 150.50,230.07 154.97,228.19 159.45,226.32 163.92,224.49 168.39,222.68 172.86,220.89 177.34,219.14 181.81,217.41 186.28,215.70 190.75,214.03 195.23,212.38 199.70,210.76 204.17,209.17 208.64,207.61 213.12,206.08 217.59,204.57 222.06,203.10 226.53,201.65 231.01,200.23 235.48,198.83 239.95,197.47 244.42,196.13 248.89,194.81 253.37,193.53 257.84,192.26 262.31,191.02 266.78,189.81 271.26,188.62 275.73,187.45 280.20,186.30 284.67,185.18 289.15,184.08 293.62,182.99 298.09,181.93 302.56,180.89 307.04,179.86 311.51,178.85 315.98,177.86 320.45,176.88 324.92,175.92 329.40,174.97 333.87,174.04 338.34,173.11 342.81,172.20 347.29,171.30 351.76,170.40 356.23,169.52 360.70,168.64 365.18,167.78 369.65,166.92 374.12,166.08 378.59,165.23 383.07,164.40 387.54,163.58 392.01,162.78 396.48,161.98 400.95,161.20 405.43,160.43 409.90,159.65 414.37,158.87 418.84,158.08 423.32,157.29 427.79,156.48 432.26,155.66 436.73,154.84 441.21,154.00 445.68,153.15 450.15,152.29 454.62,151.42 459.10,150.54 463.57,149.65 468.04,148.76 472.51,147.86 476.98,146.96 481.46,146.05 485.93,145.14 490.40,144.22 494.87,143.30 499.35,142.39 503.82,141.47 508.29,140.55 512.76,139.63 517.24,138.71 521.71,137.80 526.18,136.89 530.65,135.98 535.13,135.08 539.60,134.17 544.07,133.26 548.54,132.34 553.02,131.40 557.49,130.45 561.96,129.49 566.43,128.51 570.90,127.53 575.38,126.52 579.85,125.50 584.32,124.46 588.79,123.40 593.27,122.33 597.74,121.26 602.21,120.17 606.68,119.07 611.16,117.97 615.63,116.86 620.10,115.76 624.57,114.66 629.05,113.58 633.52,112.50 637.99,111.43 642.46,110.36 646.93,109.29 651.41,108.22 655.88,107.13 660.35,106.04 664.82,104.94 669.30,103.82 673.77,102.70 678.24,101.56 682.71,100.41 687.19,99.24 691.66,98.06 696.13,96.88 700.60,95.69 705.08,94.48 709.55,93.27 714.02,92.04 718.49,90.81 722.96,89.59 727.44,88.37 731.91,87.15 736.38,85.94 740.85,84.71 745.33,83.48 749.80,82.25 754.27,81.00 758.74,79.75 763.22,78.50 767.69,77.23 772.16,75.95 776.63,74.67 781.11,73.38 785.58,72.09 790.05,70.80 794.52,69.50 798.99,68.21 803.47,66.92 807.94,65.64 812.41,64.36 816.88,63.07 821.36,61.79 825.83,60.49 830.30,59.18 834.77,57.86 839.25,56.54 843.72,55.20 848.19,53.86 852.66,52.50 857.14,51.14 861.61,49.77 866.08,48.40 870.55,47.04 875.03,45.68 879.50,44.32 883.97,42.97 888.44,41.62 892.91,40.27 897.39,38.94 901.86,37.61 906.33,36.28 910.80,34.94 915.28,33.61 919.75,32.27 924.22,30.92 928.69,29.58 933.17,28.23 937.64,26.87 942.11,25.50 946.58,24.13 951.06,22.75 955.53,21.38 960.00,20.00"/>
<polyline fill="none" stroke="#d62728" stroke-width="2.2" points="70.00,269.83 74.47,267.67 78.94,265.51 83.42,263.37 87.89,261.23 92.36,259.11 96.83,257.00 101.31,254.92 105.78,252.86 110.25,250.82 114.72,248.81 119.20,246.83 123.67,244.88 128.14,242.96 132.61,241.08 137.09,239.23 141.56,237.42 146.03,235.65 150.50,233.91 154.97,232.22 159.45,230.56 163.92,228.95 168.39,227.37 172.86,225.83 177.34,224.34 181.81,222.88 186.28,221.47 190.75,220.09 195.23,218.76 199.70,217.46 204.17,216.20 208.64,214.98 213.12,213.79 217.59,212.64 222.06,211.52 226.53,210.44 231.01,209.40 235.48,208.38 239.95,207.40 244.42,206.44 248.89,205.52 253.37,204.62 257.84,203.75 262.31,202.90 266.78,202.08 271.26,201.28 275.73,200.51 280.20,199.75 284.67,199.02 289.15,198.30 293.62,197.60 298.09,196.92 302.56,196.26 307.04,195.60 311.51,194.96 315.98,194.33 320.45,193.71 324.92,193.10 329.40,192.50 333.87,191.90 338.34,191.30 342.81,190.71 347.29,190.12 351.76,189.53 356.23,188.94 360.70,188.35 365.18,187.76 369.65,187.17 374.12,186.57 378.59,185.97 383.07,185.37 387.54,184.76 392.01,184.16 396.48,183.57 400.95,182.97 405.43,182.38 409.90,181.78 414.37,181.17 418.84,180.56 423.32,179.93 427.79,179.30 432.26,178.66 436.73,178.00 441.21,177.34 445.68,176.66 450.15,175.97 454.62,175.27 459.10,174.57 463.57,173.85 468.04,173.12 472.51,172.39 476.98,171.65 481.46,170.89 485.93,170.13 490.40,169.37 494.87,168.60 499.35,167.83 503.82,167.04 508.29,166.25 512.76,165.46 517.24,164.66 521.71,163.87 526.18,163.07 530.65,162.26 535.13,161.46 539.60,160.65 544.07,159.84 548.54,159.01 553.02,158.18 557.49,157.34 561.96,156.49 566.43,155.63 570.90,154.76 575.38,153.88 579.85,152.98 584.32,152.07 588.79,151.15 593.27,150.21 597.74,149.27 602.21,148.31 606.68,147.34 611.16,146.36 615.63,145.38 620.10,144.39 624.57,143.40 629.05,142.41 633.52,141.43 637.99,140.44 642.46,139.46 646.93,138.47 651.41,137.48 655.88,136.49 660.35,135.48 664.82,134.47 669.30,133.45 673.77,132.43 678.24,131.39 682.71,130.34 687.19,129.28 691.66,128.21 696.13,127.14 700.60,126.05 705.08,124.96 709.55,123.85 714.02,122.73 718.49,121.61 722.96,120.49 727.44,119.36 731.91,118.24 736.38,117.11 740.85,115.98 745.33,114.84 749.80,113.70 754.27,112.55 758.74,111.40 763.22,110.23 767.69,109.06 772.16,107.88 776.63,106.70 781.11,105.50 785.58,104.31 790.05,103.10 794.52,101.90 798.99,100.69 803.47,99.48 807.94,98.27 812.41,97.06 816.88,95.84 821.36,94.62 825.83,93.40 830.30,92.16 834.77,90.91 839.25,89.66 843.72,88.40 848.19,87.14 852.66,85.87 857.14,84.59 861.61,83.30 866.08,82.02 870.55,80.74 875.03,79.45 879.50,78.17 883.97,76.88 888.44,75.60 892.91,74.32 897.39,73.04 901.86,71.76 906.33,70.48 910.80,69.19 915.28,67.91 919.75,66.62 924.22,65.33 928.69,64.03 933.17,62.74 937.64,61.44 942.11,60.13 946.58,58.82 951.06,57.50 955.53,56.18 960.00,54.86"/>
<polyline fill="none" stroke="#2ca02c" stroke-width="2.2" points="70.00,275.00 74.47,272.84 78.94,270.69 83.42,268.55 87.89,266.42 92.36,264.32 96.83,262.24 101.31,260.19 105.78,258.18 110.25,256.20 114.72,254.26 119.20,252.37 123.67,250.51 128.14,248.71 132.61,246.96 137.09,245.26 141.56,243.61 146.03,242.02 150.50,240.48 154.97,238.99 159.45,237.57 163.92,236.20 168.39,234.88 172.86,233.62 177.34,232.42 181.81,231.27 186.28,230.17 190.75,229.12 195.23,228.13 199.70,227.18 204.17,226.29 208.64,225.44 213.12,224.63 217.59,223.87 222.06,223.16 226.53,222.48 231.01,221.85 235.48,221.25 239.95,220.68 244.42,220.15 248.89,219.65 253.37,219.18 257.84,218.74 262.31,218.32 266.78,217.92 271.26,217.55 275.73,217.20 280.20,216.88 284.67,216.56 289.15,216.27 293.62,215.99 298.09,215.72 302.56,215.47 307.04,215.22 311.51,214.98 315.98,214.74 320.45,214.51 324.92,214.28 329.40,214.05 333.87,213.81 338.34,213.58 342.81,213.33 347.29,213.08 351.76,212.82 356.23,212.55 360.70,212.27 365.18,211.97 369.65,211.67 374.12,211.34 378.59,211.01 383.07,210.65 387.54,210.29 392.01,209.91 396.48,209.53 400.95,209.14 405.43,208.74 409.90,208.33 414.37,207.92 418.84,207.51 423.32,207.08 427.79,206.65 432.26,206.21 436.73,205.77 441.21,205.31 445.68,204.85 450.15,204.37 454.62,203.89 459.10,203.39 463.57,202.89 468.04,202.37 472.51,201.85 476.98,201.31 481.46,200.77 485.93,200.21 490.40,199.64 494.87,199.06 499.35,198.47 503.82,197.87 508.29,197.26 512.76,196.63 517.24,196.00 521.71,195.36 526.18,194.70 530.65,194.04 535.13,193.37 539.60,192.69 544.07,192.01 548.54,191.33 553.02,190.64 557.49,189.95 561.96,189.25 566.43,188.55 570.90,187.83 575.38,187.12 579.85,186.39 584.32,185.65 588.79,184.91 593.27,184.15 597.74,183.38 602.21,182.60 606.68,181.80 611.16,180.99 615.63,180.17 620.10,179.34 624.57,178.49 629.05,177.63 633.52,176.77 637.99,175.90 642.46,175.03 646.93,174.15 651.41,173.28 655.88,172.40 660.35,171.51 664.82,170.63 669.30,169.73 673.77,168.84 678.24,167.93 682.71,167.03 687.19,166.11 691.66,165.18 696.13,164.25 700.60,163.30 705.08,162.35 709.55,161.39 714.02,160.42 718.49,159.44 722.96,158.45 727.44,157.46 731.91,156.45 736.38,155.45 740.85,154.44 745.33,153.43 749.80,152.41 754.27,151.38 758.74,150.35 763.22,149.31 767.69,148.27 772.16,147.22 776.63,146.17 781.11,145.10 785.58,144.03 790.05,142.95 794.52,141.86 798.99,140.77 803.47,139.66 807.94,138.55 812.41,137.43 816.88,136.31 821.36,135.18 825.83,134.04 830.30,132.90 834.77,131.75 839.25,130.60 843.72,129.44 848.19,128.28 852.66,127.12 857.14,125.95 861.61,124.78 866.08,123.61 870.55,122.43 875.03,121.25 879.50,120.07 883.97,118.88 888.44,117.68 892.91,116.48 897.39,115.27 901.86,114.06 906.33,112.84 910.80,111.63 915.28,110.41 919.75,109.19 924.22,107.97 928.69,106.75 933.17,105.52 937.64,104.30 942.11,103.07 946.58,101.83 951.06,100.59 955.53,99.35 960.00,98.10"/>
</svg>