<svg xmlns="http://www.w3.org/2000/svg" width="980" height="320" viewBox="0 0 980 320">
<rect x="0" y="0" width="100%" height="100%" fill="white"/>
<text x="490.0" y="16" text-anchor="middle" font-size="16" font-family="Arial">A0 Flexible: Speed vs Time</text>
<line x1="70" y1="20.0" x2="960" y2="20.0" stroke="#e5e7eb" stroke-width="1"/>
<text x="62" y="24.0" text-anchor="end" font-size="11" font-family="Arial" fill="#555">16.7</text>
<line x1="70" y1="71.0" x2="960" y2="71.0" stroke="#e5e7eb" stroke-width="1"/>
<text x="62" y="75.0" text-anchor="end" font-size="11" font-family="Arial" fill="#555">13.7</text>
<line x1="70" y1="122.0" x2="960" y2="122.0" stroke="#e5e7eb" stroke-width="1"/>
<text x="62" y="126.0" text-anchor="end" font-size="11" font-family="Arial" fill="#555">10.7</text>
<line x1="70" y1="173.0" x2="960" y2="173.0" stroke="#e5e7eb" stroke-width="1"/>
<text x="62" y="177.0" text-anchor="end" font-size="11" font-family="Arial" fill="#555">7.8</text>
<line x1="70" y1="224.0" x2="960" y2="224.0" stroke="#e5e7eb" stroke-width="1"/>
<text x="62" y="228.0" text-anchor="end" font-size="11" font-family="Arial" fill="#555">4.8</text>
<line x1="70" y1="275.0" x2="960" y2="275.0" stroke="#e5e7eb" stroke-width="1"/>
<text x="62" y="279.0" text-anchor="end" font-size="11" font-family="Arial" fill="#555">1.8</text>
<line x1="70.0" y1="20" x2="70.0" y2="275" stroke="#f3f4f6" stroke-width="1"/>
<text x="70.0" y="293" text-anchor="middle" font-size="11" font-family="Arial" fill="#555">0.0</text>
<line x1="248.0" y1="20" x2="248.0" y2="275" stroke="#f3f4f6" stroke-width="1"/>
<text x="248.0" y="293" text-anchor="middle" font-size="11" font-family="Arial" fill="#555">4.0</text>
<line x1="426.0" y1="20" x2="426.0" y2="275" stroke="#f3f4f6" stroke-width="1"/>
<text x="426.0" y="293" text-anchor="middle" font-size="11" font-family="Arial" fill="#555">8.0</text>
<line x1="604.0" y1="20" x2="604.0" y2="275" stroke="#f3f4f6" stroke-width="1"/>
<text x="604.0" y="293" text-anchor="middle" font-size="11" font-family="Arial" fill="#555">11.9</text>
<line x1="782.0" y1="20" x2="782.0" y2="275" stroke="#f3f4f6" stroke-width="1"/>
<text x="782.0" y="293" text-anchor="middle" font-size="11" font-family="Arial" fill="#555">15.9</text>
<line x1="960.0" y1="20" x2="960.0" y2="275" stroke="#f3f4f6" stroke-width="1"/>
<text x="960.0" y="293" text-anchor="middle" font-size="11" font-family="Arial" fill="#555">19.9</text>
<line x1="70" y1="275" x2="960" y2="275" stroke="#111" stroke-width="1.5"/>
<line x1="70" y1="20" x2="70" y2="275" stroke="#111" stroke-width="1.5"/>
<text x="490.0" y="312" text-anchor="middle" font-size="12" font-family="Arial">t (s)</text>
<text x="18" y="160.0" text-anchor="middle" font-size="12" font-family="Arial" transform="rotate(-90 18 160.0)">v (m/s)</text>
<line x1="820" y1="28" x2="840" y2="28" stroke="#1f77b4" stroke-width="3"/>
<text x="848" y="32" font-size="12" font-family="Arial">p</text>
<line x1="820" y1="48" x2="840" y2="48" stroke="#d62728" stroke-width="3"/>
<text x="848" y="52" font-size="12" font-family="Arial">m</text>
<line x1="820" y1="68" x2="840" y2="68" stroke="#2ca02c" stroke-width="3"/>
<text x="848" y="72" font-size="12" font-family="Arial">s</text>
<polyline fill="none" stroke="#1f77b4" stroke-width="2.2" points="70.00,20.00 74.47,20.14 78.94,20.56 83.42,21.25 87.89,22.20 92.36,23.37 96.83,24.75 101.31,26.34 105.78,28.15 110.25,30.14 114.72,32.29 119.20,34.59 123.67,37.04 128.14,39.65 132.61,42.38 137.09,45.24 141.56,48.21 146.03,51.26 150.50,54.42 154.97,57.66 159.45,60.97 163.92,64.36 168.39,67.83 172.86,71.38 177.34,74.98 181.81,78.60 186.28,82.25 190.75,85.94 195.23,89.67 199.70,93.43 204.17,97.19 208.64,100.92 213.12,104.65 217.59,108.39 222.06,112.12 226.53,115.81 231.01,119.43 235.48,123.02 239.95,126.56 244.42,130.06 248.89,133.48 253.37,136.81 257.84,140.07 262.31,143.29 266.78,146.50 271.26,149.63 275.73,152.60 280.20,155.47 284.67,158.30 289.15,161.11 293.62,163.80 298.09,166.28 302.56,168.65 307.04,170.97 311.51,173.29 315.98,175.45 320.45,177.36 324.92,179.13 329.40,180.87 333.87,182.66 338.34,184.26 342.81,185.53 347.29,186.66 351.76,187.81 356.23,189.09 360.70,190.60 365.18,191.95 369.65,192.93 374.12,193.83 378.59,194.86 383.07,196.18 387.54,197.88 392.01,200.03 396.48,201.83 400.95,202.66 405.43,202.75 409.90,202.49 414.37,201.99 418.84,201.16 423.32,199.81 427.79,198.15 432.26,196.63 436.73,195.32 441.21,194.01 445.68,192.56 450.15,191.13 454.62,189.84 459.10,188.79 463.57,188.05 468.04,187.32 472.51,186.40 476.98,185.52 481.46,184.83 485.93,184.47 490.40,184.53 494.87,184.53 499.35,184.19 503.82,183.86 508.29,183.79 512.76,184.15 517.24,184.41 521.71,184.92 526.18,185.65 530.65,185.84 535.13,185.66 539.60,185.25 544.07,184.39 548.54,182.93 553.02,181.13 557.49,179.20 561.96,177.32 566.43,175.62 570.90,173.73 575.38,171.45 579.85,169.09 584.32,166.92 588.79,165.14 593.27,163.90 597.74,162.57 602.21,160.80 606.68,159.63 611.16,159.28 615.63,159.33 620.10,159.97 624.57,161.31 629.05,162.73 633.52,163.68 637.99,164.32 642.46,164.41 646.93,163.78 651.41,162.73 655.88,161.49 660.35,160.23 664.82,159.12 669.30,157.75 673.77,155.90 678.24,153.91 682.71,152.08 687.19,150.62 691.66,149.70 696.13,148.64 700.60,147.06 705.08,145.26 709.55,143.75 714.02,143.09 718.49,143.40 722.96,144.08 727.44,144.60 731.91,144.68 736.38,144.17 740.85,143.34 745.33,142.41 749.80,141.55 754.27,140.90 758.74,140.05 763.22,138.74 767.69,137.33 772.16,136.11 776.63,135.28 781.11,135.01 785.58,134.57 790.05,134.29 794.52,134.50 798.99,134.77 803.47,135.41 807.94,136.16 812.41,136.29 816.88,135.66 821.36,134.57 825.83,133.27 830.30,132.00 834.77,130.91 839.25,129.55 843.72,128.19 848.19,127.08 852.66,125.91 857.14,124.97 861.61,124.45 866.08,124.52 870.55,125.28 875.03,126.03 879.50,126.35 883.97,126.69 888.44,127.45 892.91,128.42 897.39,129.26 901.86,129.69 906.33,129.52 910.80,129.04 915.28,128.47 919.75,128.00 924.22,127.75 928.69,127.28 933.17,126.31 937.64,125.22 942.11,124.32 946.58,123.81 951.06,123.86 955.53,123.70 960.00,122.96"/>
<polyline fill="none" stroke="#d62728" stroke-width="2.2" points="70.00,20.00 74.47,20.26 78.94,21.03 83.42,22.27 87.89,23.94 92.36,26.00 96.83,28.45 101.31,31.27 105.78,34.43 110.25,37.88 114.72,41.60 119.20,45.58 123.67,49.81 128.14,54.26 132.61,58.88 137.09,63.64 141.56,68.53 146.03,73.56 150.50,78.72 154.97,83.95 159.45,89.22 163.92,94.51 168.39,99.83 172.86,105.15 177.34,110.47 181.81,115.74 186.28,120.98 190.75,126.18 195.23,131.35 199.70,136.43 204.17,141.40 208.64,146.29 213.12,151.09 217.59,155.82 222.06,160.42 226.53,164.88 231.01,169.20 235.48,173.41 239.95,177.46 244.42,181.31 248.89,185.00 253.37,188.54 257.84,191.95 262.31,195.25 266.78,198.47 271.26,201.54 275.73,204.39 280.20,207.09 284.67,209.66 289.15,212.13 293.62,214.42 298.09,216.45 302.56,218.29 307.04,220.01 311.51,221.64 315.98,223.06 320.45,224.18 324.92,225.09 329.40,225.91 333.87,226.69 338.34,227.23 342.81,227.40 347.29,227.38 351.76,227.32 356.23,227.32 360.70,227.48 365.18,227.44 369.65,227.01 374.12,226.46 378.59,226.00 383.07,225.79 387.54,225.92 392.01,226.47 396.48,226.91 400.95,226.83 405.43,226.37 409.90,225.76 414.37,224.97 418.84,223.92 423.32,222.55 427.79,221.00 432.26,219.55 436.73,218.25 441.21,216.92 445.68,215.42 450.15,213.90 454.62,212.46 459.10,211.21 463.57,210.21 468.04,209.17 472.51,207.91 476.98,206.63 481.46,205.50 485.93,204.64 490.40,204.14 494.87,203.55 499.35,202.59 503.82,201.60 508.29,200.83 512.76,200.46 517.24,200.12 521.71,199.83 526.18,199.65 530.65,199.26 535.13,198.77 539.60,198.27 544.07,197.54 548.54,196.42 553.02,195.12 557.49,193.80 561.96,192.45 566.43,191.10 570.90,189.58 575.38,187.80 579.85,186.01 584.32,184.26 588.79,182.61 593.27,181.21 597.74,179.76 602.21,178.10 606.68,176.77 611.16,175.77 615.63,174.95 620.10,174.55 624.57,174.72 629.05,175.11 633.52,175.35 637.99,175.54 642.46,175.45 646.93,174.90 651.41,174.12 655.88,173.28 660.35,172.40 664.82,171.52 669.30,170.43 673.77,169.01 678.24,167.56 682.71,166.15 687.19,164.83 691.66,163.79 696.13,162.67 700.60,161.27 705.08,159.77 709.55,158.37 714.02,157.38 718.49,157.03 722.96,157.05 727.44,157.05 731.91,156.80 736.38,156.21 740.85,155.50 745.33,154.72 749.80,153.91 754.27,153.22 758.74,152.42 763.22,151.37 767.69,150.19 772.16,149.01 776.63,148.05 781.11,147.48 785.58,146.89 790.05,146.36 794.52,146.00 798.99,145.58 803.47,145.47 807.94,145.52 812.41,145.25 816.88,144.59 821.36,143.65 825.83,142.53 830.30,141.43 834.77,140.51 839.25,139.49 843.72,138.58 848.19,137.81 852.66,136.91 857.14,136.13 861.61,135.69 866.08,135.59 870.55,135.82 875.03,135.95 879.50,135.75 883.97,135.66 888.44,135.79 892.91,136.02 897.39,136.29 901.86,136.31 906.33,136.00 910.80,135.58 915.28,135.22 919.75,134.95 924.22,134.79 928.69,134.46 933.17,133.81 937.64,133.00 942.11,132.17 946.58,131.55 951.06,131.34 955.53,131.06 960.00,130.47"/>
<polyline fill="none" stroke="#2ca02c" stroke-width="2.2" points="70.00,20.00 74.47,20.40 78.94,21.55 83.42,23.40 87.89,25.87 92.36,28.92 96.83,32.56 101.31,36.74 105.78,41.42 110.25,46.49 114.72,51.95 119.20,57.79 123.67,63.99 128.14,70.50 132.61,77.22 137.09,84.07 141.56,91.09 146.03,98.31 150.50,105.69 154.97,113.14 159.45,120.57 163.92,127.96 168.39,135.30 172.86,142.58 177.34,149.77 181.81,156.85 186.28,163.82 190.75,170.67 195.23,177.38 199.70,183.88 204.17,190.16 208.64,196.28 213.12,202.23 217.59,208.00 222.06,213.52 226.53,218.77 231.01,223.82 235.48,228.67 239.95,233.23 244.42,237.41 248.89,241.32 253.37,245.03 257.84,248.56 262.31,251.91 266.78,255.09 271.26,258.06 275.73,260.76 280.20,263.24 284.67,265.51 289.15,267.59 293.62,269.42 298.09,270.94 302.56,272.20 307.04,273.26 311.51,274.15 315.98,274.75 320.45,275.00 324.92,274.99 329.40,274.79 333.87,274.48 338.34,273.88 342.81,272.86 347.29,271.60 351.76,270.22 356.23,268.84 360.70,267.54 365.18,265.99 369.65,264.04 374.12,261.92 378.59,259.85 383.07,257.98 387.54,256.41 392.01,255.22 396.48,254.25 400.95,253.34 405.43,252.54 409.90,251.82 414.37,251.01 418.84,250.02 423.32,248.96 427.79,247.88 432.26,246.84 436.73,245.87 441.21,244.79 445.68,243.50 450.15,242.11 454.62,240.73 459.10,239.44 463.57,238.30 468.04,237.05 472.51,235.51 476.98,233.88 481.46,232.32 485.93,230.94 490.40,229.83 494.87,228.57 499.35,226.89 503.82,225.12 508.29,223.51 512.76,222.24 517.24,221.15 521.71,219.87 526.18,218.51 530.65,217.38 535.13,216.51 539.60,215.91 544.07,215.37 548.54,214.73 553.02,214.09 557.49,213.56 561.96,212.92 566.43,212.04 570.90,210.99 575.38,209.86 579.85,208.82 584.32,207.63 588.79,206.10 593.27,204.50 597.74,202.87 602.21,201.32 606.68,199.75 611.16,197.89 615.63,195.88 620.10,194.07 624.57,192.67 629.05,191.66 633.52,190.94 637.99,190.53 642.46,190.18 646.93,189.73 651.41,189.29 655.88,188.99 660.35,188.61 664.82,188.04 669.30,187.30 673.77,186.47 678.24,185.74 682.71,184.88 687.19,183.73 691.66,182.56 696.13,181.35 700.60,180.18 705.08,179.10 709.55,177.83 714.02,176.40 718.49,175.18 722.96,174.31 727.44,173.64 731.91,172.94 736.38,172.25 740.85,171.70 745.33,171.12 749.80,170.37 754.27,169.63 758.74,168.90 763.22,168.20 767.69,167.34 772.16,166.20 776.63,165.05 781.11,164.11 785.58,163.31 790.05,162.45 794.52,161.32 798.99,160.00 803.47,158.88 807.94,158.00 812.41,157.20 816.88,156.51 821.36,155.77 825.83,154.87 830.30,154.00 834.77,153.31 839.25,152.74 843.72,152.43 848.19,152.13 852.66,151.56 857.14,151.02 861.61,150.69 866.08,150.36 870.55,149.87 875.03,149.17 879.50,148.29 883.97,147.63 888.44,146.90 892.91,146.16 897.39,145.66 901.86,145.15 906.33,144.65 910.80,144.30 915.28,144.22 919.75,144.22 924.22,144.17 928.69,144.03 933.17,143.82 937.64,143.38 942.11,142.62 946.58,141.86 951.06,141.31 955.53,140.87 960.00,140.49"/>
</svg>