<svg xmlns="http://www.w3.org/2000/svg" width="980" height="320" viewBox="0 0 980 320">
<rect x="0" y="0" width="100%" height="100%" fill="white"/>
<text x="490.0" y="16" text-anchor="middle" font-size="16" font-family="Arial">A0 Flexible: Acceleration vs Time</text>
<line x1="70" y1="20.0" x2="960" y2="20.0" stroke="#e5e7eb" stroke-width="1"/>
<text x="62" y="24.0" text-anchor="end" font-size="11" font-family="Arial" fill="#555">1.4</text>
<line x1="70" y1="71.0" x2="960" y2="71.0" stroke="#e5e7eb" stroke-width="1"/>
<text x="62" y="75.0" text-anchor="end" font-size="11" font-family="Arial" fill="#555">0.2</text>
<line x1="70" y1="122.0" x2="960" y2="122.0" stroke="#e5e7eb" stroke-width="1"/>
<text x="62" y="126.0" text-anchor="end" font-size="11" font-family="Arial" fill="#555">-0.9</text>
<line x1="70" y1="173.0" x2="960" y2="173.0" stroke="#e5e7eb" stroke-width="1"/>
<text x="62" y="177.0" text-anchor="end" font-size="11" font-family="Arial" fill="#555">-2.1</text>
<line x1="70" y1="224.0" x2="960" y2="224.0" stroke="#e5e7eb" stroke-width="1"/>
<text x="62" y="228.0" text-anchor="end" font-size="11" font-family="Arial" fill="#555">-3.2</text>
<line x1="70" y1="275.0" x2="960" y2="275.0" stroke="#e5e7eb" stroke-width="1"/>
<text x="62" y="279.0" text-anchor="end" font-size="11" font-family="Arial" fill="#555">-4.4</text>
<line x1="70.0" y1="20" x2="70.0" y2="275" stroke="#f3f4f6" stroke-width="1"/>
<text x="70.0" y="293" text-anchor="middle" font-size="11" font-family="Arial" fill="#555">0.0</text>
<line x1="248.0" y1="20" x2="248.0" y2="275" stroke="#f3f4f6" stroke-width="1"/>
<text x="248.0" y="293" text-anchor="middle" font-size="11" font-family="Arial" fill="#555">4.0</text>
<line x1="426.0" y1="20" x2="426.0" y2="275" stroke="#f3f4f6" stroke-width="1"/>
<text x="426.0" y="293" text-anchor="middle" font-size="11" font-family="Arial" fill="#555">8.0</text>
<line x1="604.0" y1="20" x2="604.0" y2="275" stroke="#f3f4f6" stroke-width="1"/>
<text x="604.0" y="293" text-anchor="middle" font-size="11" font-family="Arial" fill="#555">11.9</text>
<line x1="782.0" y1="20" x2="782.0" y2="275" stroke="#f3f4f6" stroke-width="1"/>
<text x="782.0" y="293" text-anchor="middle" font-size="11" font-family="Arial" fill="#555">15.9</text>
<line x1="960.0" y1="20" x2="960.0" y2="275" stroke="#f3f4f6" stroke-width="1"/>
<text x="960.0" y="293" text-anchor="middle" font-size="11" font-family="Arial" fill="#555">19.9</text>
<line x1="70" y1="275" x2="960" y2="275" stroke="#111" stroke-width="1.5"/>
<line x1="70" y1="20" x2="70" y2="275" stroke="#111" stroke-width="1.5"/>
<text x="490.0" y="312" text-anchor="middle" font-size="12" font-family="Arial">t (s)</text>
<text x="18" y="160.0" text-anchor="middle" font-size="12" font-family="Arial" transform="rotate(-90 18 160.0)">a (m/s^2)</text>
<line x1="820" y1="28" x2="840" y2="28" stroke="#1f77b4" stroke-width="3"/>
<text x="848" y="32" font-size="12" font-family="Arial">p</text>
<line x1="820" y1="48" x2="840" y2="48" stroke="#d62728" stroke-width="3"/>
<text x="848" y="52" font-size="12" font-family="Arial">m</text>
<line x1="820" y1="68" x2="840" y2="68" stroke="#2ca02c" stroke-width="3"/>
<text x="848" y="72" font-size="12" font-family="Arial">s</text>
<polyline fill="none" stroke="#1f77b4" stroke-width="2.2" points="70.00,82.00 74.47,89.28 78.94,96.43 83.42,103.41 87.89,109.49 92.36,115.03 96.83,120.53 101.31,125.98 105.78,131.35 110.25,135.84 114.72,139.64 119.20,143.53 123.67,147.46 128.14,151.40 132.61,154.48 137.09,157.62 141.56,159.92 146.03,162.41 150.50,165.01 154.97,166.81 159.45,168.76 163.92,170.83 168.39,172.97 172.86,175.15 177.34,175.47 181.81,176.09 186.28,176.96 190.75,178.04 195.23,179.26 199.70,179.65 204.17,178.89 208.64,178.58 213.12,178.63 217.59,178.98 222.06,178.57 226.53,176.53 231.01,175.17 235.48,174.40 239.95,173.09 244.42,172.32 248.89,169.17 253.37,167.04 257.84,165.78 262.31,165.24 266.78,165.28 271.26,160.57 275.73,157.41 280.20,155.56 284.67,154.78 289.15,154.87 293.62,148.46 298.09,144.39 302.56,142.25 307.04,141.70 311.51,142.42 315.98,133.89 320.45,128.95 324.92,126.94 329.40,127.25 333.87,129.38 338.34,117.78 342.81,111.92 347.29,110.60 351.76,112.77 356.23,117.54 360.70,124.13 365.18,110.13 369.65,104.70 374.12,105.75 378.59,111.48 383.07,120.40 387.54,131.29 392.01,143.16 396.48,114.78 400.95,92.71 405.43,76.15 409.90,74.33 414.37,63.88 418.84,57.29 423.32,37.56 427.79,40.27 432.26,44.88 436.73,51.00 441.21,45.15 445.68,43.76 450.15,45.98 454.62,51.07 459.10,58.35 463.57,67.27 468.04,59.10 472.51,57.33 476.98,60.58 481.46,67.64 485.93,77.47 490.40,89.18 494.87,75.14 499.35,71.32 503.82,75.19 508.29,84.60 512.76,97.76 517.24,79.99 521.71,109.33 526.18,92.87 530.65,81.16 535.13,73.52 539.60,69.32 544.07,50.19 548.54,38.34 553.02,32.56 557.49,31.77 561.96,34.72 566.43,40.93 570.90,25.79 575.38,20.00 579.85,21.64 584.32,29.73 588.79,41.95 593.27,57.09 597.74,38.55 602.21,33.86 606.68,68.90 611.16,76.36 615.63,89.66 620.10,106.78 624.57,126.07 629.05,111.68 633.52,101.70 637.99,95.49 642.46,73.19 646.93,58.78 651.41,50.98 655.88,48.62 660.35,50.36 664.82,55.67 669.30,37.88 673.77,30.25 678.24,30.72 682.71,38.17 687.19,50.16 691.66,65.40 696.13,44.20 700.60,38.07 705.08,32.92 709.55,52.48 714.02,76.34 718.49,102.56 722.96,96.95 727.44,93.94 731.91,74.68 736.38,63.12 740.85,57.93 745.33,57.64 749.80,61.58 754.27,68.82 758.74,51.52 763.22,44.50 767.69,46.31 772.16,54.24 776.63,66.72 781.11,82.39 785.58,59.39 790.05,89.36 794.52,85.70 798.99,91.76 803.47,104.75 807.94,98.04 812.41,73.51 816.88,57.96 821.36,49.59 825.83,47.44 830.30,50.31 834.77,57.16 839.25,37.09 843.72,55.96 848.19,50.47 852.66,53.01 857.14,61.70 861.61,74.93 866.08,92.01 870.55,110.91 875.03,92.45 879.50,87.80 883.97,93.46 888.44,109.38 892.91,104.82 897.39,102.79 901.86,83.49 906.33,72.05 910.80,67.11 915.28,67.45 919.75,71.70 924.22,79.29 928.69,60.83 933.17,53.09 937.64,54.54 942.11,62.37 946.58,74.94 951.06,90.84 955.53,65.69 960.00,60.03"/>
<polyline fill="none" stroke="#d62728" stroke-width="2.2" points="70.00,82.00 74.47,95.45 78.94,108.15 83.42,120.11 87.89,130.08 92.36,140.57 96.83,150.40 101.31,159.59 105.78,168.15 110.25,174.69 114.72,181.81 119.20,188.41 123.67,194.49 128.14,200.06 132.61,203.54 137.09,206.72 141.56,210.58 146.03,214.05 150.50,217.14 154.97,218.06 159.45,218.82 163.92,219.43 168.39,219.87 172.86,220.15 177.34,219.18 181.81,218.21 186.28,217.23 190.75,216.23 195.23,215.19 199.70,212.04 204.17,209.67 208.64,207.47 213.12,205.41 217.59,203.45 222.06,199.19 226.53,195.62 231.01,192.44 235.48,189.60 239.95,184.26 244.42,179.59 248.89,175.39 253.37,171.85 257.84,168.88 262.31,166.40 266.78,164.32 271.26,158.43 275.73,153.71 280.20,149.99 284.67,147.13 289.15,145.00 293.62,137.41 298.09,131.76 302.56,127.75 307.04,125.10 311.51,123.60 315.98,114.07 320.45,107.67 324.92,103.88 329.40,102.22 333.87,102.27 338.34,90.01 342.81,82.95 347.29,80.08 351.76,80.51 356.23,83.48 360.70,88.33 365.18,73.98 369.65,67.74 374.12,67.73 378.59,72.33 383.07,80.20 387.54,90.20 392.01,101.42 396.48,85.79 400.95,74.21 405.43,66.14 409.90,65.75 414.37,57.44 418.84,52.34 423.32,40.95 427.79,42.66 432.26,46.04 436.73,50.77 441.21,44.34 445.68,41.98 450.15,42.96 454.62,46.61 459.10,52.33 463.57,59.62 468.04,50.68 472.51,47.82 476.98,49.77 481.46,55.41 485.93,63.78 490.40,74.07 494.87,59.47 499.35,54.80 503.82,57.68 508.29,66.06 512.76,78.24 517.24,68.09 521.71,80.83 526.18,73.81 530.65,69.91 535.13,68.61 539.60,69.47 544.07,56.76 548.54,49.58 553.02,46.99 557.49,48.14 561.96,46.18 566.43,47.91 570.90,37.35 575.38,34.25 579.85,37.05 584.32,36.53 588.79,41.37 593.27,50.25 597.74,38.91 602.21,38.61 606.68,55.98 611.16,56.50 615.63,64.53 620.10,77.85 624.57,94.61 629.05,89.34 633.52,86.99 637.99,87.06 642.46,72.22 646.93,63.53 651.41,59.93 655.88,60.48 660.35,58.26 664.82,59.97 669.30,47.48 673.77,43.26 678.24,45.57 682.71,45.07 687.19,50.29 691.66,59.83 696.13,46.24 700.60,44.91 705.08,41.88 709.55,49.04 714.02,63.13 718.49,81.88 722.96,82.98 727.44,81.39 731.91,69.69 736.38,63.97 740.85,63.15 745.33,60.18 749.80,61.66 754.27,66.67 758.74,55.98 763.22,53.52 767.69,49.68 772.16,52.73 776.63,61.06 781.11,73.26 785.58,60.17 790.05,76.07 794.52,69.27 798.99,73.00 803.47,84.38 807.94,82.15 812.41,68.46 816.88,61.45 821.36,53.83 825.83,51.99 830.30,54.81 834.77,61.31 839.25,50.16 843.72,66.13 848.19,58.37 852.66,58.59 857.14,64.98 861.61,75.97 866.08,82.42 870.55,93.01 875.03,77.92 879.50,75.76 883.97,83.20 888.44,86.99 892.91,89.14 897.39,88.64 901.86,76.72 906.33,71.15 910.80,70.75 915.28,74.49 919.75,75.38 924.22,80.06 928.69,67.20 933.17,63.36 937.64,58.77 942.11,61.58 946.58,70.05 951.06,82.67 955.53,67.17 960.00,66.44"/>
<polyline fill="none" stroke="#2ca02c" stroke-width="2.2" points="70.00,82.00 74.47,102.33 78.94,121.21 83.42,138.71 87.89,152.90 92.36,168.93 96.83,183.60 101.31,196.96 105.78,209.08 110.25,217.77 114.72,228.63 119.20,238.27 123.67,246.76 128.14,254.17 132.61,257.95 137.09,261.05 141.56,266.69 146.03,271.32 150.50,275.00 154.97,274.78 159.45,274.08 163.92,272.95 168.39,271.41 172.86,269.49 177.34,266.98 181.81,264.16 186.28,261.06 190.75,257.70 195.23,254.10 199.70,246.75 204.17,242.58 208.64,238.29 213.12,233.88 217.59,229.38 222.06,220.57 226.53,215.37 231.01,210.24 235.48,205.18 239.95,195.06 244.42,185.80 248.89,180.62 253.37,175.70 257.84,171.02 262.31,166.56 266.78,162.31 271.26,155.25 275.73,148.94 280.20,143.30 284.67,138.27 289.15,133.79 293.62,125.02 298.09,117.73 302.56,111.73 307.04,106.88 311.51,103.01 315.98,92.45 320.45,84.51 324.92,78.83 329.40,75.05 333.87,72.88 338.34,59.92 342.81,51.57 347.29,47.03 351.76,45.58 356.23,46.61 360.70,49.56 365.18,34.84 369.65,27.72 374.12,26.56 378.59,29.93 383.07,36.64 387.54,45.66 392.01,56.15 396.48,57.39 400.95,59.62 405.43,62.64 409.90,63.84 414.37,58.11 418.84,54.68 423.32,54.18 427.79,54.17 432.26,55.53 436.73,58.02 441.21,50.49 445.68,46.50 450.15,45.45 454.62,46.80 459.10,50.05 463.57,54.79 468.04,44.50 472.51,39.84 476.98,39.70 481.46,43.09 485.93,49.16 490.40,57.19 494.87,41.57 499.35,35.48 503.82,36.74 508.29,43.44 512.76,54.01 517.24,53.74 521.71,44.08 526.18,49.42 530.65,55.72 535.13,62.69 539.60,70.13 544.07,65.81 548.54,64.73 553.02,66.27 557.49,69.87 561.96,61.30 566.43,56.97 570.90,52.44 575.38,52.87 579.85,57.15 584.32,45.13 588.79,40.10 593.27,40.64 597.74,38.87 602.21,44.42 606.68,38.24 611.16,29.52 615.63,30.55 620.10,38.83 624.57,52.26 629.05,59.18 633.52,67.03 637.99,75.52 642.46,70.67 646.93,69.64 651.41,71.68 655.88,76.14 660.35,68.65 664.82,65.60 669.30,60.20 673.77,60.54 678.24,65.32 682.71,54.24 687.19,50.45 691.66,52.41 696.13,48.96 700.60,54.05 705.08,53.85 709.55,44.48 714.02,45.55 718.49,54.33 722.96,64.39 727.44,64.69 731.91,63.07 736.38,65.15 740.85,70.15 745.33,63.61 749.80,61.81 754.27,63.84 758.74,61.97 763.22,65.59 767.69,54.19 772.16,50.74 776.63,53.53 781.11,61.11 785.58,61.24 790.05,58.38 794.52,47.39 798.99,48.01 803.47,57.23 807.94,60.99 812.41,61.75 816.88,66.12 821.36,59.50 825.83,58.07 830.30,60.81 834.77,66.83 839.25,67.58 843.72,79.69 848.19,68.89 852.66,66.02 857.14,69.34 861.61,77.36 866.08,69.62 870.55,69.14 875.03,58.55 879.50,59.70 883.97,69.50 888.44,57.14 892.91,68.23 897.39,69.76 901.86,67.69 906.33,69.95 910.80,75.61 915.28,83.88 919.75,80.28 924.22,81.08 928.69,75.68 933.17,77.05 937.64,64.42 942.11,60.54 946.58,63.53 951.06,71.76 955.53,69.15 960.00,74.99"/>
</svg>